<svg width="631" height="136" xmlns="http://www.w3.org/2000/svg"><g fill="none" fill-rule="evenodd"><g transform="translate(156.184 43.691)" fill-rule="nonzero"><path d="M84.2 18.457c1.171-.187 2.12-.516 2.847-.984a5.044 5.044 0 0 0 1.705-1.81c.41-.74.732-1.665.967-2.778.234-1.114.48-2.737.738-4.87h4.992V16.7h11.356v3.551H95.449v15.645c0 2.273.094 4.084.281 5.431.188 1.348.54 2.403 1.055 3.164.516.762 1.102 1.307 1.758 1.635.656.328 1.5.492 2.531.492.938 0 1.817-.193 2.637-.58.82-.387 1.629-.943 2.426-1.67l1.582 1.899c-1.664 1.617-3.24 2.789-4.729 3.515-1.488.727-3.03 1.09-4.623 1.09-3.023 0-5.273-.896-6.75-2.69-1.476-1.792-2.215-4.599-2.215-8.42V20.25H84.2v-1.793zM18.808 50.871c-2.813 0-5.373-.463-7.682-1.389-2.309-.925-4.29-2.367-5.941-4.324-1.653-1.957-2.93-4.459-3.832-7.506C.45 34.605 0 30.961 0 26.72c0-5.227.797-9.715 2.39-13.465 1.594-3.75 3.874-6.604 6.839-8.56 2.964-1.958 6.404-2.936 10.318-2.936 4.172 0 7.682.92 10.53 2.76 2.847 1.84 4.991 4.546 6.433 8.12 1.441 3.575 2.162 7.928 2.162 13.061 0 5.485-.82 10.113-2.461 13.887-1.64 3.773-3.955 6.598-6.943 8.473-2.989 1.875-6.475 2.812-10.46 2.812zM7.242 25.734c0 7.196 1.049 12.668 3.147 16.418 2.097 3.75 5.162 5.625 9.193 5.625 2.555 0 4.723-.814 6.504-2.443 1.781-1.629 3.117-4.014 4.008-7.154.89-3.14 1.336-6.809 1.336-11.004 0-5.11-.522-9.346-1.565-12.71-1.043-3.362-2.467-5.806-4.271-7.33-1.805-1.523-3.903-2.284-6.293-2.284-2.11 0-3.92.492-5.432 1.476-1.512.984-2.765 2.385-3.762 4.201-.996 1.817-1.722 4.014-2.18 6.592-.456 2.578-.685 5.45-.685 8.613zm48.551 23.52v7.418c0 1.523.053 2.66.158 3.41.106.75.293 1.342.563 1.775.27.434.656.791 1.16 1.073.504.28 1.318.539 2.443.773v1.723H45.773v-1.723c.844-.234 1.53-.474 2.057-.72.527-.247.932-.61 1.213-1.09.281-.48.469-1.131.562-1.952.094-.82.141-1.91.141-3.27V26.509c0-1.688-.023-2.889-.07-3.604-.047-.715-.14-1.306-.281-1.775-.141-.469-.346-.856-.616-1.16-.27-.305-.633-.563-1.09-.774-.457-.21-1.212-.422-2.267-.633V16.7l8.262-.316h2.144l-.457 5.73.527.14c1.454-1.476 2.602-2.548 3.446-3.216a14.706 14.706 0 0 1 2.619-1.67c.902-.445 1.77-.762 2.601-.949a12.05 12.05 0 0 1 2.655-.281c3.867 0 6.838 1.447 8.912 4.342 2.074 2.894 3.111 7.13 3.111 12.709 0 3.867-.586 7.119-1.758 9.755-1.171 2.637-2.877 4.618-5.115 5.942-2.238 1.324-4.904 1.986-7.998 1.986-1.734 0-3.305-.146-4.71-.44a21.073 21.073 0 0 1-3.868-1.177zm0-11.602c0 2.25.14 3.985.422 5.203.281 1.22.78 2.21 1.494 2.971a6.767 6.767 0 0 0 2.531 1.705c.973.375 2.256.563 3.85.563 2.836 0 4.969-1.178 6.398-3.533 1.43-2.356 2.145-5.83 2.145-10.424 0-9.188-2.684-13.782-8.051-13.782-1.312 0-2.443.206-3.393.616-.949.41-1.892 1.072-2.83 1.986-.937.914-1.6 1.799-1.986 2.654a6.621 6.621 0 0 0-.58 2.76v9.281zm68.954 13.22c-4.875 0-8.596-1.436-11.162-4.308-2.566-2.87-3.85-7.119-3.85-12.744 0-3.867.674-7.136 2.022-9.808 1.348-2.672 3.193-4.658 5.537-5.96 2.344-1.3 5.016-1.95 8.016-1.95 5.015 0 8.812 1.459 11.39 4.377 2.578 2.917 3.867 7.107 3.867 12.568 0 3.89-.644 7.172-1.933 9.844-1.29 2.672-3.117 4.67-5.485 5.994-2.367 1.324-5.167 1.986-8.402 1.986zm-8.367-17.79c0 4.828.768 8.537 2.303 11.127s3.732 3.885 6.591 3.885c1.57 0 2.907-.381 4.008-1.143 1.102-.762 1.998-1.787 2.69-3.076.691-1.29 1.19-2.783 1.494-4.482.305-1.7.457-3.475.457-5.327 0-3.445-.38-6.304-1.143-8.578-.761-2.273-1.798-3.943-3.111-5.01-1.312-1.066-2.812-1.6-4.5-1.6-2.836 0-5.01 1.231-6.521 3.692-1.512 2.461-2.268 5.965-2.268 10.512z" fill="#A7C1E3"/><path d="M456.777 53.191c-1.29 2.907-2.543 5.262-3.762 7.067-1.219 1.804-2.56 3.164-4.026 4.078-1.464.914-3.205 1.371-5.22 1.371-1.29 0-2.742-.152-4.36-.457v-6.96h3.13c.28.96.632 1.628 1.054 2.003.422.375 1.031.562 1.828.562.703 0 1.33-.134 1.881-.404.55-.27 1.125-.732 1.723-1.389.597-.656 1.3-1.664 2.109-3.023.809-1.36 1.717-3.082 2.725-5.168l-9.844-26.473c-.633-1.71-1.143-2.906-1.53-3.585-.386-.68-.802-1.196-1.247-1.547-.446-.352-1.125-.633-2.04-.844v-1.723h14.31v1.723c-1.102.258-1.876.51-2.321.756-.446.246-.774.562-.985.949-.21.387-.316.885-.316 1.494 0 .633.076 1.29.228 1.969.153.68.393 1.476.721 2.39l6.258 17.614 7.031-16.875c.399-.938.71-1.8.932-2.584.223-.785.334-1.518.334-2.198 0-1.007-.276-1.769-.826-2.285-.551-.515-1.506-.925-2.866-1.23v-1.723h13.149v1.723c-.914.187-1.617.474-2.11.861-.492.387-.984.996-1.476 1.828-.492.832-1.078 1.998-1.758 3.498l-12.726 28.582zm-299.58-3.937v7.418c0 1.523.052 2.66.158 3.41.105.75.293 1.342.562 1.775.27.434.656.791 1.16 1.073.504.28 1.319.539 2.444.773v1.723h-14.344v-1.723c.844-.234 1.53-.474 2.056-.72.528-.247.932-.61 1.213-1.09.282-.48.47-1.131.563-1.952.094-.82.14-1.91.14-3.27V26.509c0-1.688-.023-2.889-.07-3.604-.047-.715-.14-1.306-.281-1.775-.14-.469-.346-.856-.615-1.16-.27-.305-.633-.563-1.09-.774-.457-.21-1.213-.422-2.268-.633V16.7l8.262-.316h2.145l-.458 5.73.528.14c1.453-1.476 2.601-2.548 3.445-3.216a14.706 14.706 0 0 1 2.62-1.67c.902-.445 1.769-.762 2.6-.949a12.05 12.05 0 0 1 2.655-.281c3.867 0 6.838 1.447 8.912 4.342 2.074 2.894 3.112 7.13 3.112 12.709 0 3.867-.586 7.119-1.758 9.755-1.172 2.637-2.877 4.618-5.115 5.942-2.239 1.324-4.905 1.986-7.999 1.986-1.734 0-3.304-.146-4.71-.44a21.073 21.073 0 0 1-3.868-1.177zm0-11.602c0 2.25.14 3.985.421 5.203.281 1.22.78 2.21 1.494 2.971a6.767 6.767 0 0 0 2.532 1.705c.972.375 2.255.563 3.85.563 2.835 0 4.968-1.178 6.398-3.533 1.43-2.356 2.144-5.83 2.144-10.424 0-9.188-2.683-13.782-8.05-13.782-1.313 0-2.444.206-3.393.616-.95.41-1.893 1.072-2.83 1.986-.938.914-1.6 1.799-1.987 2.654a6.621 6.621 0 0 0-.58 2.76v9.281zm39.937-15.433l.14.035c1.829-1.852 3.276-3.147 4.342-3.885 1.067-.738 2.121-1.295 3.164-1.67a9.85 9.85 0 0 1 3.358-.562c1.289 0 2.437.152 3.445.457a7.655 7.655 0 0 1 2.654 1.388 7.397 7.397 0 0 1 1.864 2.286c.48.902.838 1.98 1.072 3.234.234 1.254.351 2.842.351 4.764V41.52c0 2.039.088 3.427.264 4.166.176.738.492 1.312.95 1.722.456.41 1.376.803 2.76 1.178v1.723h-13.852v-1.723c.914-.281 1.57-.527 1.968-.738.399-.211.733-.504 1.002-.88.27-.374.48-.954.633-1.74.152-.785.229-1.974.229-3.568v-9.21c0-3.118-.159-5.503-.475-7.155-.316-1.652-.938-2.889-1.863-3.71-.926-.82-2.221-1.23-3.885-1.23-.938 0-1.781.165-2.531.493-.75.328-1.617.914-2.602 1.757-.984.844-1.728 1.711-2.232 2.602a5.692 5.692 0 0 0-.756 2.848V41.52c0 1.593.04 2.73.123 3.41.082.68.24 1.248.475 1.705.234.457.591.832 1.072 1.125.48.293 1.224.568 2.232.826v1.723h-13.922v-1.723c1.032-.281 1.77-.55 2.215-.809a2.893 2.893 0 0 0 1.037-.984c.246-.398.428-.973.545-1.723.117-.75.176-1.933.176-3.55V12.094c0-2.25-.018-3.82-.053-4.711-.035-.89-.129-1.647-.281-2.268-.152-.62-.363-1.107-.633-1.459a2.841 2.841 0 0 0-1.09-.844c-.457-.21-1.283-.421-2.478-.632V.352L195.024 0h2.11v22.219zm42.39 30.972c-1.288 2.907-2.542 5.262-3.761 7.067-1.219 1.804-2.56 3.164-4.025 4.078-1.465.914-3.205 1.371-5.221 1.371-1.29 0-2.742-.152-4.36-.457v-6.96h3.13c.28.96.632 1.628 1.054 2.003.422.375 1.031.562 1.828.562.703 0 1.33-.134 1.881-.404.55-.27 1.125-.732 1.723-1.389.597-.656 1.3-1.664 2.11-3.023.808-1.36 1.716-3.082 2.724-5.168l-9.844-26.473c-.633-1.71-1.143-2.906-1.53-3.585-.386-.68-.802-1.196-1.247-1.547-.446-.352-1.125-.633-2.04-.844v-1.723h14.31v1.723c-1.102.258-1.876.51-2.321.756-.445.246-.774.562-.985.949-.21.387-.316.885-.316 1.494 0 .633.076 1.29.229 1.969.152.68.392 1.476.72 2.39l6.258 17.614 7.031-16.875c.399-.938.71-1.8.932-2.584.223-.785.334-1.518.334-2.198 0-1.007-.275-1.769-.826-2.285-.551-.515-1.506-.925-2.865-1.23v-1.723h13.148v1.723c-.914.187-1.617.474-2.11.861-.492.387-.984.996-1.476 1.828-.492.832-1.078 1.998-1.758 3.498l-12.726 28.582zm43.44-28.793h-3.375c-.516-1.406-1.125-2.513-1.828-3.322-.703-.808-1.5-1.377-2.39-1.705-.891-.328-1.981-.492-3.27-.492-1.875 0-3.37.44-4.483 1.318-1.113.88-1.67 2.08-1.67 3.604 0 1.078.223 1.969.668 2.672.446.703 1.137 1.359 2.075 1.968.937.61 2.59 1.418 4.957 2.426 2.39 1.031 4.236 1.98 5.537 2.848 1.3.867 2.32 1.875 3.058 3.023.739 1.149 1.108 2.52 1.108 4.114 0 1.851-.317 3.41-.95 4.675a8.126 8.126 0 0 1-2.671 3.094c-1.149.797-2.514 1.371-4.096 1.723-1.582.351-3.31.527-5.186.527-1.968 0-3.878-.146-5.73-.44a53.369 53.369 0 0 1-5.414-1.142v-7.348h3.445c.633 2.157 1.57 3.721 2.813 4.694 1.242.972 2.953 1.459 5.133 1.459.843 0 1.67-.088 2.478-.264a6.458 6.458 0 0 0 2.162-.879 4.434 4.434 0 0 0 1.512-1.67c.375-.703.562-1.582.562-2.636 0-1.196-.234-2.168-.703-2.918-.468-.75-1.195-1.436-2.18-2.057-.984-.621-2.718-1.46-5.203-2.514-2.132-.89-3.843-1.758-5.132-2.601-1.29-.844-2.303-1.84-3.041-2.989-.739-1.148-1.108-2.507-1.108-4.078 0-1.922.522-3.592 1.565-5.01 1.043-1.417 2.549-2.501 4.517-3.251 1.969-.75 4.278-1.125 6.926-1.125 1.547 0 3.041.076 4.482.228 1.442.152 3.252.451 5.432.897v7.171zm17.438-21.48v6.82h-6.47v-6.82h6.47zm-10.055 45.668c.914-.281 1.564-.527 1.951-.738.387-.211.715-.504.984-.88.27-.374.48-.948.633-1.722.153-.773.229-1.98.229-3.621V26.297c0-1.5-.024-2.707-.07-3.621-.047-.914-.211-1.647-.493-2.197a2.672 2.672 0 0 0-1.283-1.231c-.574-.27-1.389-.498-2.443-.686V16.7l8.191-.316h2.145V41.52c0 2.015.093 3.416.28 4.2.188.786.546 1.384 1.073 1.794.528.41 1.389.767 2.584 1.072v1.723h-13.781v-1.723zm35.297 2.285c-4.875 0-8.596-1.435-11.162-4.307-2.567-2.87-3.85-7.119-3.85-12.744 0-3.867.674-7.136 2.022-9.808 1.347-2.672 3.193-4.658 5.537-5.96 2.343-1.3 5.015-1.95 8.015-1.95 5.016 0 8.813 1.459 11.39 4.377 2.579 2.917 3.868 7.107 3.868 12.568 0 3.89-.644 7.172-1.933 9.844-1.29 2.672-3.118 4.67-5.485 5.994-2.367 1.324-5.168 1.986-8.402 1.986zm-8.367-17.789c0 4.828.767 8.537 2.302 11.127 1.535 2.59 3.733 3.885 6.592 3.885 1.57 0 2.906-.381 4.008-1.143 1.102-.762 1.998-1.787 2.69-3.076.69-1.29 1.189-2.783 1.494-4.482.304-1.7.457-3.475.457-5.327 0-3.445-.381-6.304-1.143-8.578-.762-2.273-1.799-3.943-3.111-5.01-1.313-1.066-2.813-1.6-4.5-1.6-2.836 0-5.01 1.231-6.522 3.692-1.512 2.461-2.267 5.965-2.267 10.512zm40.675 8.438c0 2.015.094 3.416.282 4.2.187.786.545 1.384 1.072 1.794.527.41 1.389.767 2.584 1.072v1.723h-13.957v-1.723c1.172-.305 1.986-.621 2.443-.95.457-.327.785-.72.985-1.177.199-.457.34-1.078.421-1.863.082-.785.124-1.81.124-3.076V12.094c0-2.25-.018-3.82-.053-4.711-.035-.89-.13-1.647-.281-2.268-.153-.62-.364-1.107-.633-1.459a2.841 2.841 0 0 0-1.09-.844c-.457-.21-1.283-.421-2.479-.632V.352L355.843 0h2.11v41.52zm25.454 9.351c-4.875 0-8.596-1.435-11.163-4.307-2.566-2.87-3.85-7.119-3.85-12.744 0-3.867.675-7.136 2.022-9.808 1.348-2.672 3.194-4.658 5.537-5.96 2.344-1.3 5.016-1.95 8.016-1.95 5.016 0 8.813 1.459 11.39 4.377 2.579 2.917 3.868 7.107 3.868 12.568 0 3.89-.645 7.172-1.934 9.844-1.289 2.672-3.117 4.67-5.484 5.994-2.367 1.324-5.168 1.986-8.402 1.986zm-8.368-17.789c0 4.828.768 8.537 2.303 11.127s3.732 3.885 6.592 3.885c1.57 0 2.906-.381 4.008-1.143 1.101-.762 1.998-1.787 2.69-3.076.69-1.29 1.189-2.783 1.493-4.482.305-1.7.457-3.475.457-5.327 0-3.445-.38-6.304-1.142-8.578-.762-2.273-1.8-3.943-3.112-5.01-1.312-1.066-2.812-1.6-4.5-1.6-2.836 0-5.01 1.231-6.521 3.692-1.512 2.461-2.268 5.965-2.268 10.512zm62.825-12.832l-6.504-.246-.317.387c.727.726 1.301 1.716 1.723 2.97.422 1.254.633 2.608.633 4.06 0 3.821-1.178 6.768-3.534 8.843-2.355 2.074-5.7 3.111-10.037 3.111-1.945 0-3.62-.246-5.027-.738-1.781 1.36-2.672 2.695-2.672 4.008 0 .867.17 1.523.51 1.968.34.446.902.762 1.687.95.786.187 1.975.28 3.569.28h8.437c2.485 0 4.512.387 6.082 1.16 1.57.774 2.69 1.811 3.358 3.112.668 1.301 1.002 2.819 1.002 4.553 0 2.203-.633 4.166-1.899 5.889-1.265 1.722-3.093 3.064-5.484 4.025-2.39.961-5.18 1.441-8.367 1.441-2.367 0-4.53-.14-6.487-.421-1.957-.282-3.632-.756-5.027-1.424-1.395-.668-2.473-1.547-3.234-2.637-.762-1.09-1.143-2.455-1.143-4.096 0-1.476.492-2.818 1.477-4.025.984-1.207 2.379-2.268 4.183-3.182-1.101-.445-1.969-1.101-2.601-1.968-.633-.868-.95-1.887-.95-3.06 0-1.335.375-2.56 1.125-3.673s2.075-2.385 3.973-3.814c-1.687-.985-2.97-2.32-3.85-4.008-.878-1.688-1.318-3.61-1.318-5.766 0-2.015.334-3.767 1.002-5.256.668-1.488 1.594-2.718 2.777-3.691 1.184-.973 2.584-1.7 4.202-2.18 1.617-.48 3.363-.72 5.238-.72 1.687 0 3.363.199 5.027.597h12.446v3.551zm-24.399 7.137c0 2.93.598 5.191 1.793 6.785 1.195 1.594 2.918 2.39 5.168 2.39 1.195 0 2.215-.228 3.059-.685a5.663 5.663 0 0 0 2.056-1.88c.528-.798.914-1.718 1.16-2.76.247-1.044.37-2.14.37-3.288 0-2.062-.293-3.785-.88-5.168-.585-1.383-1.382-2.396-2.39-3.04-1.008-.645-2.168-.968-3.48-.968-2.227 0-3.926.739-5.098 2.215-1.172 1.477-1.758 3.61-1.758 6.399zm.879 23.484c-1.195.89-2.092 1.834-2.69 2.83-.597.996-.896 2.127-.896 3.393 0 2.11.838 3.662 2.514 4.658 1.676.996 4.236 1.494 7.681 1.494 2.11 0 3.92-.281 5.432-.844 1.512-.562 2.666-1.37 3.463-2.425.797-1.055 1.195-2.286 1.195-3.692a7.47 7.47 0 0 0-.246-1.916 3.884 3.884 0 0 0-.932-1.67c-.457-.492-1.107-.885-1.95-1.178-.844-.292-1.946-.439-3.305-.439h-5.239c-1.898 0-3.574-.07-5.027-.21z" fill="#FFF"/></g><circle fill="#EAEBE7" cx="68" cy="68" r="68"/><g transform="translate(17.486 22.76)"><path d="M85.835 0c2.16.742 4.23 1.628 5.669 3.528 2.467 3.251 2.885 6.775 1.05 10.4-1.782 3.524-4.853 5.275-8.76 5.144-4.05-.135-7.018-2.18-8.538-5.98-.459-1.154-.958-1.552-2.2-1.52-3.643.092-7.287.067-10.924.01-.964-.01-1.422.268-1.743 1.216-.932 2.8-2.885 4.7-5.637 5.696-.825.3-1.071.692-1.062 1.518.032 3.97.032 7.939 0 11.908-.01.837.269 1.193 1.082 1.503 3.85 1.476 6.226 4.931 6.252 8.886.025 3.953-2.315 7.427-6.164 8.938-.933.366-1.185.84-1.174 1.778.036 5.33.036 10.659 0 15.99-.005.891.23 1.304 1.123 1.643 4.06 1.555 6.477 5.377 6.179 9.563-.304 4.183-3.216 7.651-7.246 8.624-4.145.995-8.378-.765-10.518-4.382-2.127-3.591-1.666-8.15 1.18-11.345 1.143-1.286 2.562-2.189 4.224-2.639.745-.205 1.005-.557 1-1.356-.038-5.439-.03-10.876-.004-16.315.003-.767-.211-1.07-.996-1.337-4.268-1.442-6.727-4.884-6.705-9.179.02-4.205 2.463-7.535 6.684-9.022.699-.247 1.035-.513 1.025-1.344a510.361 510.361 0 0 1-.005-11.912c.009-.782-.236-1.135-.986-1.365-3.057-.933-5.15-2.944-6.19-5.967-.262-.754-.61-1.003-1.39-.998-3.862.036-7.72.073-11.58-.015-1.132-.028-1.416.5-1.742 1.384-1.45 3.952-5.13 6.351-9.387 6.209-4.018-.139-7.576-2.953-8.734-6.907-1.64-5.61 2.124-11.311 7.968-12.078.72-.225 1.455-.053 2.182-.107 3.897-.101 6.467 1.904 8.023 5.283.574 1.242 1.319 1.656 2.625 1.629 3.2-.065 6.402-.046 9.6-.005 1.128.015 1.782-.391 2.254-1.441C43.694 2.464 46.02.39 49.607 0h3.589c3.762.326 6.019 2.63 7.544 5.823.402.854.912 1.254 1.85 1.249 3.416-.022 6.832-.031 10.244.005 1.092.01 1.65-.5 2.072-1.451.932-2.08 2.33-3.753 4.4-4.83.939-.488 1.964-.52 2.938-.796h3.591z" fill="#2A6EBB"/><path d="M82.842 26.076c-1.3 6.752-1.676 13.487-2.557 20.16-.304 2.316-.54 4.643-1.226 6.887-.283.917-.675 1.769-1.783 1.86-1.174.105-1.777-.667-2.175-1.618-1.55-3.665-2.174-7.598-3.256-11.4-.134-.466-.263-.932-.434-1.548-1.082 1.437-2.566 1.51-4.03 1.52-1.52.011-3.04-.185-4.553-.115-1.14.051-1.17-.466-1.17-1.354-.011-1.145.237-1.7 1.545-1.448.953.184 1.953.076 2.922.165 1.751.165 3.077-.057 3.669-2.15.438-1.522 2.015-1.571 3.06-.302.933 1.13 1.175 2.55 1.541 3.9.81 3.021 1.556 6.063 2.448 9.083.923-4.709 1.299-9.453 1.809-14.18.433-3.995.741-8.006 1.649-11.936.119-.527.221-1.07.418-1.571.648-1.674 2.107-1.86 3.25-.458 1.104 1.364 1.387 3.04 1.82 4.658.34 1.255.7 2.51.928 3.792.947 5.367 4.22 8.764 9.079 10.85 1.541.664 3.066 1.36 4.632 1.97.738.29.716.761.361 1.213-.402.497-.124 1.855-1.21 1.446-3.953-1.496-7.854-3.127-11.07-6.037-2.73-2.474-3.714-5.782-4.617-9.151-.375-1.405-.701-2.823-1.05-4.236M0 74.438c1.956.015 3.91-.005 5.866.066 1.005.04 1.662-.247 1.919-1.288.243-.995.69-1.933 1.862-1.964 1.308-.036 1.863 1.002 2.243 2.036 1.226 3.312 1.807 6.805 2.78 10.188.148.517.287 1.034.544 1.965.768-3.894 1.022-7.426 1.427-10.94.59-5.126.838-10.292 1.987-15.341.286-1.27.246-3.013 2.046-3.092 1.723-.069 2.27 1.55 2.7 2.853.673 2.054 1.25 4.166 1.628 6.295.97 5.505 4.312 8.953 9.256 11.102 1.492.65 2.956 1.367 4.486 1.907 1.153.407.473 1.048.252 1.497-.244.493-.07 1.617-1.282 1.117-3.311-1.36-6.607-2.734-9.525-4.871-3.105-2.272-4.682-5.473-5.63-9.067-.464-1.772-.89-3.552-1.454-5.319-.847 3.794-1.087 7.64-1.52 11.458-.55 4.855-.876 9.741-1.925 14.526-.082.372-.18.739-.301 1.098-.286.866-.737 1.619-1.743 1.716-1.094.104-1.706-.646-2.098-1.51a19.883 19.883 0 0 1-1.103-3.045c-.805-2.985-1.546-5.986-2.32-8.975-.081-.31-.223-.597-.381-1.01-.992 1.287-2.34 1.426-3.697 1.474A36.683 36.683 0 0 1 0 77.048v-2.61zm.353-35.846c1.841-.192 3.663.294 5.517.14 1.08-.09 1.7-.425 1.96-1.485.231-.95.713-1.768 1.819-1.8 1.16-.036 1.751.805 2.122 1.738 1.188 2.98 1.723 6.148 2.573 9.232.254.93.5 1.863.867 3.232.757-3.908 1.025-7.412 1.423-10.903.585-5.12.843-10.285 1.983-15.333.283-1.255.18-3.025 1.977-3.152 1.847-.128 2.382 1.584 2.81 2.92.888 2.785 1.574 5.638 2.293 8.473.857 3.377 2.991 5.708 5.915 7.42 2.252 1.324 4.635 2.37 7.068 3.291.864.327.822.8.432 1.295-.384.488-.085 1.84-1.257 1.376-3.94-1.544-7.859-3.139-11.048-6.075-3.111-2.863-3.938-6.762-4.932-10.595-.229-.88-.44-1.763-.785-2.638-.962 4.83-1.27 9.715-1.828 14.57-.44 3.828-.74 7.675-1.608 11.441-.131.58-.295 1.168-.572 1.685-.785 1.477-2.261 1.555-3.231.185-.735-1.038-1.073-2.255-1.399-3.454-.809-2.985-1.56-5.985-2.323-8.98-.094-.371-.15-.746-.473-1.057-.872 1.03-2.046 1.344-3.343 1.344H0v-1.306c.415-.454-.09-1.116.353-1.564M76.045 90.76c-2.128-3.182-2.546-6.94-3.56-10.497-.352-1.25-.646-2.516-.98-3.84-2.912 2.201-6.153 1.196-9.245 1.142-1.143-.02-.417-1.211-.53-1.864-.114-.663.139-.969.9-.904 1.624.134 3.253.19 4.881.228.933.019 1.67-.277 1.916-1.355.228-.99.68-1.938 1.867-1.963 1.308-.027 1.86 1.007 2.246 2.046 1.124 3 1.665 6.17 2.525 9.248.228.818.289 1.7.876 2.587.84-4.788 1.2-9.476 1.706-14.144.432-3.995.731-8.005 1.638-11.933.124-.531.218-1.073.397-1.58.608-1.701 2.062-1.967 3.236-.6.877 1.018 1.238 2.272 1.572 3.536.68 2.566 1.304 5.152 2.04 7.703 1.068 3.672 3.799 5.853 7.035 7.483a73.255 73.255 0 0 0 5.786 2.587c.882.35.737.873.382 1.336-.367.483.01 1.841-1.284 1.325-3.982-1.587-7.95-3.204-11.15-6.216-2.587-2.436-3.526-5.658-4.396-8.92-.376-1.405-.7-2.82-1.16-4.22-.968 4.743-1.246 9.545-1.797 14.316-.45 3.882-.774 7.781-1.593 11.616-.232 1.082-.628 2.051-1.35 2.883h-1.958z" fill="#020202"/></g></g></svg>